<?xml version="1.0"?>
<svg xmlns="http://www.w3.org/2000/svg" height="512px" viewBox="0 0 64 64" width="512px"><g><g id="safebox"><path d="m56 28a1 1 0 0 0 1-1v-1h4a1 1 0 0 0 1-1v-4h-.007a.994.994 0 0 0 -.466-.85l-29-18a1 1 0 0 0 -1.054 0l-29 18a.994.994 0 0 0 -.466.85h-.007v4a1 1 0 0 0 1 1h4v1a1 1 0 0 0 1 1h2v4h-5a3 3 0 0 0 -3 3v24a3 3 0 0 0 3 3h56a1 1 0 0 0 1-1v-6a1 1 0 0 0 -1-1h-4v-5a1 1 0 0 0 -1-1h-2v-20zm-13-2v-4h12v4zm-1 22a1 1 0 0 0 -1 1v5h-3v-19a3 3 0 0 0 -3-3h-15v-4h2a1 1 0 0 0 1-1v-1h18v1a1 1 0 0 0 1 1h2v20zm-1-26v2h-18v-2zm16 2v-2h3v2zm-25-19.823 25.492 15.823h-50.984zm-28 19.823v-2h3v2zm5-2h12v4h-12zm3 6h6v4h-6zm-8 21v-4h2v4zm5 2a1 1 0 0 1 0 2h-5v-2zm-1 4h1a3 3 0 0 0 0-6h-1v-4h1a3 3 0 0 0 0-6h-1v-1h24v18h-24zm1-14a1 1 0 0 1 0 2h-5v-2zm-4 19a1 1 0 0 1 -1-1v-4h2v2a1 1 0 0 0 1 1h26a1 1 0 0 0 1-1v-20a1 1 0 0 0 -1-1h-26a1 1 0 0 0 -1 1v2h-2v-4a1 1 0 0 1 1-1h30a1 1 0 0 1 1 1v24a1 1 0 0 1 -1 1zm55 0h-22.184a2.966 2.966 0 0 0 .184-1v-3h22zm-5-6h-12v-4h12zm-3-6h-6v-20h6z" data-original="#000000" class="active-path" data-old_color="#000000" fill="#FFFFFF"/><path d="m17 43a4 4 0 1 0 4 4 4 4 0 0 0 -4-4zm0 6a2 2 0 1 1 2-2 2 2 0 0 1 -2 2z" data-original="#000000" class="active-path" data-old_color="#000000" fill="#FFFFFF"/><path d="m28 46h2v2h-2z" data-original="#000000" class="active-path" data-old_color="#000000" fill="#FFFFFF"/><path d="m25 46h2v2h-2z" data-original="#000000" class="active-path" data-old_color="#000000" fill="#FFFFFF"/><path d="m22 46h2v2h-2z" data-original="#000000" class="active-path" data-old_color="#000000" fill="#FFFFFF"/><path d="m28 49h2v2h-2z" data-original="#000000" class="active-path" data-old_color="#000000" fill="#FFFFFF"/><path d="m25 49h2v2h-2z" data-original="#000000" class="active-path" data-old_color="#000000" fill="#FFFFFF"/><path d="m22 49h2v2h-2z" data-original="#000000" class="active-path" data-old_color="#000000" fill="#FFFFFF"/><path d="m28 43h2v2h-2z" data-original="#000000" class="active-path" data-old_color="#000000" fill="#FFFFFF"/><path d="m25 43h2v2h-2z" data-original="#000000" class="active-path" data-old_color="#000000" fill="#FFFFFF"/><path d="m22 43h2v2h-2z" data-original="#000000" class="active-path" data-old_color="#000000" fill="#FFFFFF"/></g></g> </svg>
